<svg width="323" height="103" viewBox="0 0 323 103" fill="none" xmlns="http://www.w3.org/2000/svg">
<path d="M73.056 68.36C71.16 68.36 69.708 67.82 68.7 66.74C67.716 65.66 67.224 64.136 67.224 62.168V48.632C67.224 46.664 67.716 45.14 68.7 44.06C69.708 42.98 71.16 42.44 73.056 42.44C74.952 42.44 76.392 42.98 77.376 44.06C78.384 45.14 78.888 46.664 78.888 48.632V51.296H75.144V48.38C75.144 46.82 74.484 46.04 73.164 46.04C71.844 46.04 71.184 46.82 71.184 48.38V62.456C71.184 63.992 71.844 64.76 73.164 64.76C74.484 64.76 75.144 63.992 75.144 62.456V58.604H78.888V62.168C78.888 64.136 78.384 65.66 77.376 66.74C76.392 67.82 74.952 68.36 73.056 68.36ZM84.3173 42.8H89.6813L93.7853 68H89.8253L89.1053 62.996V63.068H84.6053L83.8853 68H80.2133L84.3173 42.8ZM88.6373 59.648L86.8733 47.192H86.8013L85.0732 59.648H88.6373ZM95.7065 42.8H101.538C103.506 42.8 104.982 43.328 105.966 44.384C106.95 45.44 107.442 46.988 107.442 49.028V51.512C107.442 53.552 106.95 55.1 105.966 56.156C104.982 57.212 103.506 57.74 101.538 57.74H99.6665V68H95.7065V42.8ZM101.538 54.14C102.186 54.14 102.666 53.96 102.978 53.6C103.314 53.24 103.482 52.628 103.482 51.764V48.776C103.482 47.912 103.314 47.3 102.978 46.94C102.666 46.58 102.186 46.4 101.538 46.4H99.6665V54.14H101.538ZM223.525 68.36C221.629 68.36 220.177 67.82 219.169 66.74C218.185 65.66 217.693 64.136 217.693 62.168V48.632C217.693 46.664 218.185 45.14 219.169 44.06C220.177 42.98 221.629 42.44 223.525 42.44C225.421 42.44 226.861 42.98 227.845 44.06C228.853 45.14 229.357 46.664 229.357 48.632V51.296H225.613V48.38C225.613 46.82 224.953 46.04 223.633 46.04C222.313 46.04 221.653 46.82 221.653 48.38V62.456C221.653 63.992 222.313 64.76 223.633 64.76C224.953 64.76 225.613 63.992 225.613 62.456V58.604H229.357V62.168C229.357 64.136 228.853 65.66 227.845 66.74C226.861 67.82 225.421 68.36 223.525 68.36ZM237.486 68.36C235.566 68.36 234.102 67.82 233.094 66.74C232.086 65.636 231.582 64.064 231.582 62.024V42.8H235.542V62.312C235.542 63.176 235.71 63.8 236.046 64.184C236.406 64.568 236.91 64.76 237.558 64.76C238.206 64.76 238.698 64.568 239.034 64.184C239.394 63.8 239.574 63.176 239.574 62.312V42.8H243.39V62.024C243.39 64.064 242.886 65.636 241.878 66.74C240.87 67.82 239.406 68.36 237.486 68.36ZM246.21 42.8H252.042C254.01 42.8 255.486 43.328 256.47 44.384C257.454 45.44 257.946 46.988 257.946 49.028V51.512C257.946 53.552 257.454 55.1 256.47 56.156C255.486 57.212 254.01 57.74 252.042 57.74H250.17V68H246.21V42.8ZM252.042 54.14C252.69 54.14 253.17 53.96 253.482 53.6C253.818 53.24 253.986 52.628 253.986 51.764V48.776C253.986 47.912 253.818 47.3 253.482 46.94C253.17 46.58 252.69 46.4 252.042 46.4H250.17V54.14H252.042Z" fill="#00A41A"/>
<path d="M109.593 42.8H120.069V46.4H113.553V53.42H118.665V57.02H113.553V68H109.593V42.8ZM127.692 68.36C125.748 68.36 124.26 67.808 123.228 66.704C122.196 65.6 121.68 64.04 121.68 62.024V48.776C121.68 46.76 122.196 45.2 123.228 44.096C124.26 42.992 125.748 42.44 127.692 42.44C129.636 42.44 131.124 42.992 132.156 44.096C133.188 45.2 133.704 46.76 133.704 48.776V62.024C133.704 64.04 133.188 65.6 132.156 66.704C131.124 67.808 129.636 68.36 127.692 68.36ZM127.692 64.76C129.06 64.76 129.744 63.932 129.744 62.276V48.524C129.744 46.868 129.06 46.04 127.692 46.04C126.324 46.04 125.64 46.868 125.64 48.524V62.276C125.64 63.932 126.324 64.76 127.692 64.76ZM142.106 68.36C140.162 68.36 138.674 67.808 137.642 66.704C136.61 65.6 136.094 64.04 136.094 62.024V48.776C136.094 46.76 136.61 45.2 137.642 44.096C138.674 42.992 140.162 42.44 142.106 42.44C144.05 42.44 145.538 42.992 146.57 44.096C147.602 45.2 148.118 46.76 148.118 48.776V62.024C148.118 64.04 147.602 65.6 146.57 66.704C145.538 67.808 144.05 68.36 142.106 68.36ZM142.106 64.76C143.474 64.76 144.158 63.932 144.158 62.276V48.524C144.158 46.868 143.474 46.04 142.106 46.04C140.738 46.04 140.054 46.868 140.054 48.524V62.276C140.054 63.932 140.738 64.76 142.106 64.76ZM155.944 68.36C154.024 68.36 152.572 67.82 151.588 66.74C150.604 65.636 150.112 64.064 150.112 62.024V60.584H153.856V62.312C153.856 63.944 154.54 64.76 155.908 64.76C156.58 64.76 157.084 64.568 157.42 64.184C157.78 63.776 157.96 63.128 157.96 62.24C157.96 61.184 157.72 60.26 157.24 59.468C156.76 58.652 155.872 57.68 154.576 56.552C152.944 55.112 151.804 53.816 151.156 52.664C150.508 51.488 150.184 50.168 150.184 48.704C150.184 46.712 150.688 45.176 151.696 44.096C152.704 42.992 154.168 42.44 156.088 42.44C157.984 42.44 159.412 42.992 160.372 44.096C161.356 45.176 161.848 46.736 161.848 48.776V49.82H158.104V48.524C158.104 47.66 157.936 47.036 157.6 46.652C157.264 46.244 156.772 46.04 156.124 46.04C154.804 46.04 154.144 46.844 154.144 48.452C154.144 49.364 154.384 50.216 154.864 51.008C155.368 51.8 156.268 52.76 157.564 53.888C159.22 55.328 160.36 56.636 160.984 57.812C161.608 58.988 161.92 60.368 161.92 61.952C161.92 64.016 161.404 65.6 160.372 66.704C159.364 67.808 157.888 68.36 155.944 68.36ZM164.191 42.8H170.167C172.207 42.8 173.695 43.28 174.631 44.24C175.567 45.176 176.035 46.628 176.035 48.596V49.604C176.035 50.9 175.819 51.956 175.387 52.772C174.979 53.588 174.343 54.176 173.479 54.536V54.608C175.447 55.28 176.431 57.032 176.431 59.864V62.024C176.431 63.968 175.915 65.456 174.883 66.488C173.875 67.496 172.387 68 170.419 68H164.191V42.8ZM169.699 53.06C170.491 53.06 171.079 52.856 171.463 52.448C171.871 52.04 172.075 51.356 172.075 50.396V48.992C172.075 48.08 171.907 47.42 171.571 47.012C171.259 46.604 170.755 46.4 170.059 46.4H168.151V53.06H169.699ZM170.419 64.4C171.115 64.4 171.631 64.22 171.967 63.86C172.303 63.476 172.471 62.828 172.471 61.916V59.72C172.471 58.568 172.267 57.776 171.859 57.344C171.475 56.888 170.827 56.66 169.915 56.66H168.151V64.4H170.419ZM181.806 42.8H187.17L191.274 68H187.314L186.594 62.996V63.068H182.094L181.374 68H177.702L181.806 42.8ZM186.126 59.648L184.362 47.192H184.29L182.562 59.648H186.126ZM193.195 42.8H197.155V64.4H203.671V68H193.195V42.8ZM205.57 42.8H209.53V64.4H216.046V68H205.57V42.8Z" fill="#F77600"/>
<path d="M299.697 27.2647H244.235V37.0522H299.697V27.2647Z" fill="#D8D8D8"/>
<path d="M278.605 61.0273H264.395V71.9797H278.605V61.0273Z" fill="#FF6600" stroke="#FF6600"/>
<path d="M275.869 54.1529H267.131V61.2603H275.869V54.1529Z" fill="#FF6600" stroke="#FF6600"/>
<path d="M271.471 21.9944L279.711 54.5022H263.231L271.471 21.9944Z" fill="#FF6600" stroke="#FF6600"/>
<path d="M271.5 51.706L263.26 37.7242H279.74L271.5 51.706Z" fill="#FF6600" stroke="#FF6600"/>
<path d="M279.769 26.6821H263.289V37.6345H279.769V26.6821Z" fill="#FF6600" stroke="#FF6600"/>
<path d="M271.5 17.415L279.74 26.5031H263.26L271.5 17.415Z" fill="#FF6600" stroke="#FF6600"/>
<path d="M271.5 24.3624C275.715 24.3624 279.132 21.0237 279.132 16.9052C279.132 12.7867 275.715 9.44798 271.5 9.44798C267.285 9.44798 263.868 12.7867 263.868 16.9052C263.868 21.0237 267.285 24.3624 271.5 24.3624Z" fill="#FF6600" stroke="#FF6600"/>
<path d="M79.6969 27.2647H24.2353V37.0522H79.6969V27.2647Z" fill="#D8D8D8"/>
<path d="M58.6049 61.0273H44.3951V71.9797H58.6049V61.0273Z" fill="#FF6600" stroke="#FF6600"/>
<path d="M55.8693 54.1529H47.1305V61.2603H55.8693V54.1529Z" fill="#FF6600" stroke="#FF6600"/>
<path d="M51.4707 21.9944L59.7107 54.5022H43.2307L51.4707 21.9944Z" fill="#FF6600" stroke="#FF6600"/>
<path d="M51.5 51.706L43.26 37.7242H59.74L51.5 51.706Z" fill="#FF6600" stroke="#FF6600"/>
<path d="M59.769 26.6821H43.289V37.6345H59.769V26.6821Z" fill="#FF6600" stroke="#FF6600"/>
<path d="M51.5 17.415L59.74 26.5031H43.26L51.5 17.415Z" fill="#FF6600" stroke="#FF6600"/>
<path d="M51.5 24.3624C55.715 24.3624 59.1319 21.0237 59.1319 16.9052C59.1319 12.7867 55.715 9.44798 51.5 9.44798C47.285 9.44798 43.8681 12.7867 43.8681 16.9052C43.8681 21.0237 47.285 24.3624 51.5 24.3624Z" fill="#FF6600" stroke="#FF6600"/>
<rect x="75" y="27" width="178" height="10" fill="#D9D9D9"/>
</svg>
