<svg width="323" height="103" viewBox="0 0 323 103" fill="none" xmlns="http://www.w3.org/2000/svg">
<path d="M76.056 68.36C74.16 68.36 72.708 67.82 71.7 66.74C70.716 65.66 70.224 64.136 70.224 62.168V48.632C70.224 46.664 70.716 45.14 71.7 44.06C72.708 42.98 74.16 42.44 76.056 42.44C77.952 42.44 79.392 42.98 80.376 44.06C81.384 45.14 81.888 46.664 81.888 48.632V51.296H78.144V48.38C78.144 46.82 77.484 46.04 76.164 46.04C74.844 46.04 74.184 46.82 74.184 48.38V62.456C74.184 63.992 74.844 64.76 76.164 64.76C77.484 64.76 78.144 63.992 78.144 62.456V58.604H81.888V62.168C81.888 64.136 81.384 65.66 80.376 66.74C79.392 67.82 77.952 68.36 76.056 68.36ZM87.3173 42.8H92.6813L96.7853 68H92.8253L92.1053 62.996V63.068H87.6053L86.8853 68H83.2133L87.3173 42.8ZM91.6373 59.648L89.8733 47.192H89.8013L88.0732 59.648H91.6373ZM98.7065 42.8H104.538C106.506 42.8 107.982 43.328 108.966 44.384C109.95 45.44 110.442 46.988 110.442 49.028V51.512C110.442 53.552 109.95 55.1 108.966 56.156C107.982 57.212 106.506 57.74 104.538 57.74H102.666V68H98.7065V42.8ZM104.538 54.14C105.186 54.14 105.666 53.96 105.978 53.6C106.314 53.24 106.482 52.628 106.482 51.764V48.776C106.482 47.912 106.314 47.3 105.978 46.94C105.666 46.58 105.186 46.4 104.538 46.4H102.666V54.14H104.538ZM213.447 68.36C211.551 68.36 210.099 67.82 209.091 66.74C208.107 65.66 207.615 64.136 207.615 62.168V48.632C207.615 46.664 208.107 45.14 209.091 44.06C210.099 42.98 211.551 42.44 213.447 42.44C215.343 42.44 216.783 42.98 217.767 44.06C218.775 45.14 219.279 46.664 219.279 48.632V51.296H215.535V48.38C215.535 46.82 214.875 46.04 213.555 46.04C212.235 46.04 211.575 46.82 211.575 48.38V62.456C211.575 63.992 212.235 64.76 213.555 64.76C214.875 64.76 215.535 63.992 215.535 62.456V58.604H219.279V62.168C219.279 64.136 218.775 65.66 217.767 66.74C216.783 67.82 215.343 68.36 213.447 68.36ZM227.408 68.36C225.488 68.36 224.024 67.82 223.016 66.74C222.008 65.636 221.504 64.064 221.504 62.024V42.8H225.464V62.312C225.464 63.176 225.632 63.8 225.968 64.184C226.328 64.568 226.832 64.76 227.48 64.76C228.128 64.76 228.62 64.568 228.956 64.184C229.316 63.8 229.496 63.176 229.496 62.312V42.8H233.312V62.024C233.312 64.064 232.808 65.636 231.8 66.74C230.792 67.82 229.328 68.36 227.408 68.36ZM236.132 42.8H241.964C243.932 42.8 245.408 43.328 246.392 44.384C247.376 45.44 247.868 46.988 247.868 49.028V51.512C247.868 53.552 247.376 55.1 246.392 56.156C245.408 57.212 243.932 57.74 241.964 57.74H240.092V68H236.132V42.8ZM241.964 54.14C242.612 54.14 243.092 53.96 243.404 53.6C243.74 53.24 243.908 52.628 243.908 51.764V48.776C243.908 47.912 243.74 47.3 243.404 46.94C243.092 46.58 242.612 46.4 241.964 46.4H240.092V54.14H241.964Z" fill="#00A41A"/>
<path d="M112.593 42.8H123.069V46.4H116.553V53.42H121.665V57.02H116.553V68H112.593V42.8ZM130.728 68.36C128.808 68.36 127.344 67.82 126.336 66.74C125.328 65.636 124.824 64.064 124.824 62.024V42.8H128.784V62.312C128.784 63.176 128.952 63.8 129.288 64.184C129.648 64.568 130.152 64.76 130.8 64.76C131.448 64.76 131.94 64.568 132.276 64.184C132.636 63.8 132.816 63.176 132.816 62.312V42.8H136.632V62.024C136.632 64.064 136.128 65.636 135.12 66.74C134.112 67.82 132.648 68.36 130.728 68.36ZM139.453 42.8H151.477V46.328L148.705 53.132C150.793 53.78 151.837 55.712 151.837 58.928V61.772C151.837 63.812 151.345 65.36 150.361 66.416C149.377 67.472 147.901 68 145.933 68H144.961V64.4H145.933C146.581 64.4 147.061 64.22 147.373 63.86C147.709 63.5 147.877 62.888 147.877 62.024V58.676C147.877 57.812 147.709 57.2 147.373 56.84C147.061 56.48 146.581 56.3 145.933 56.3H144.961V52.952L147.589 46.4H143.413V68H139.453V42.8ZM154.113 42.8H160.089C162.129 42.8 163.617 43.28 164.553 44.24C165.489 45.176 165.957 46.628 165.957 48.596V49.604C165.957 50.9 165.741 51.956 165.309 52.772C164.901 53.588 164.265 54.176 163.401 54.536V54.608C165.369 55.28 166.353 57.032 166.353 59.864V62.024C166.353 63.968 165.837 65.456 164.805 66.488C163.797 67.496 162.309 68 160.341 68H154.113V42.8ZM159.621 53.06C160.413 53.06 161.001 52.856 161.385 52.448C161.793 52.04 161.997 51.356 161.997 50.396V48.992C161.997 48.08 161.829 47.42 161.493 47.012C161.181 46.604 160.677 46.4 159.981 46.4H158.073V53.06H159.621ZM160.341 64.4C161.037 64.4 161.553 64.22 161.889 63.86C162.225 63.476 162.393 62.828 162.393 61.916V59.72C162.393 58.568 162.189 57.776 161.781 57.344C161.397 56.888 160.749 56.66 159.837 56.66H158.073V64.4H160.341ZM171.727 42.8H177.091L181.195 68H177.235L176.515 62.996V63.068H172.015L171.295 68H167.623L171.727 42.8ZM176.047 59.648L174.283 47.192H174.211L172.483 59.648H176.047ZM183.117 42.8H187.077V64.4H193.593V68H183.117V42.8ZM195.492 42.8H199.452V64.4H205.968V68H195.492V42.8Z" fill="#F77600"/>
<path d="M299.697 27.2647H244.235V37.0522H299.697V27.2647Z" fill="#D8D8D8"/>
<path d="M278.605 61.0273H264.395V71.9797H278.605V61.0273Z" fill="#FF6600" stroke="#FF6600"/>
<path d="M275.869 54.1529H267.131V61.2603H275.869V54.1529Z" fill="#FF6600" stroke="#FF6600"/>
<path d="M271.471 21.9944L279.711 54.5022H263.231L271.471 21.9944Z" fill="#FF6600" stroke="#FF6600"/>
<path d="M271.5 51.706L263.26 37.7242H279.74L271.5 51.706Z" fill="#FF6600" stroke="#FF6600"/>
<path d="M279.769 26.6822H263.289V37.6346H279.769V26.6822Z" fill="#FF6600" stroke="#FF6600"/>
<path d="M271.5 17.415L279.74 26.5031H263.26L271.5 17.415Z" fill="#FF6600" stroke="#FF6600"/>
<path d="M271.5 24.3624C275.715 24.3624 279.132 21.0237 279.132 16.9052C279.132 12.7867 275.715 9.448 271.5 9.448C267.285 9.448 263.868 12.7867 263.868 16.9052C263.868 21.0237 267.285 24.3624 271.5 24.3624Z" fill="#FF6600" stroke="#FF6600"/>
<path d="M79.6969 27.2647H24.2353V37.0522H79.6969V27.2647Z" fill="#D8D8D8"/>
<path d="M58.6049 61.0273H44.3951V71.9797H58.6049V61.0273Z" fill="#FF6600" stroke="#FF6600"/>
<path d="M55.8692 54.1529H47.1305V61.2603H55.8692V54.1529Z" fill="#FF6600" stroke="#FF6600"/>
<path d="M51.4707 21.9944L59.7107 54.5022H43.2307L51.4707 21.9944Z" fill="#FF6600" stroke="#FF6600"/>
<path d="M51.5 51.706L43.26 37.7242H59.74L51.5 51.706Z" fill="#FF6600" stroke="#FF6600"/>
<path d="M59.769 26.6822H43.289V37.6346H59.769V26.6822Z" fill="#FF6600" stroke="#FF6600"/>
<path d="M51.5 17.415L59.74 26.5031H43.26L51.5 17.415Z" fill="#FF6600" stroke="#FF6600"/>
<path d="M51.5 24.3624C55.715 24.3624 59.1319 21.0237 59.1319 16.9052C59.1319 12.7867 55.715 9.448 51.5 9.448C47.285 9.448 43.8681 12.7867 43.8681 16.9052C43.8681 21.0237 47.285 24.3624 51.5 24.3624Z" fill="#FF6600" stroke="#FF6600"/>
<rect x="75" y="27" width="178" height="10" fill="#D9D9D9"/>
</svg>
